<?xml version="1.0" standalone="no"?>
<!DOCTYPE svg PUBLIC "-//W3C//DTD SVG 20010904//EN"
 "http://www.w3.org/TR/2001/REC-SVG-20010904/DTD/svg10.dtd">
<svg version="1.0" xmlns="http://www.w3.org/2000/svg"
 width="309.000000pt" height="309.000000pt" viewBox="0 0 309.000000 309.000000"
 preserveAspectRatio="xMidYMid meet">
<metadata>
Created by potrace 1.14, written by Peter Selinger 2001-2017
</metadata>
<g transform="translate(0.000000,309.000000) scale(0.100000,-0.100000)"
fill="#000000" stroke="none">
<path d="M2028 3074 c-76 -41 -56 -134 41 -190 105 -59 231 -28 231 58 0 26
-34 86 -59 105 -23 18 -114 43 -153 43 -18 -1 -45 -7 -60 -16z"/>
<path d="M1166 2966 c-68 -29 -82 -41 -91 -77 -21 -86 165 -95 251 -13 90 84
-23 148 -160 90z"/>
<path d="M1619 2777 c-76 -35 -102 -120 -56 -187 85 -125 317 -83 317 58 0 51
-24 85 -78 115 -54 30 -134 36 -183 14z"/>
<path d="M2505 2714 c-29 -32 -39 -72 -26 -107 6 -15 8 -27 5 -27 -9 0 24 -55
50 -83 29 -32 99 -66 134 -67 86 -1 123 97 75 195 -37 74 -97 115 -168 115
-37 0 -51 -5 -70 -26z"/>
<path d="M570 2692 c-79 -54 -130 -162 -77 -162 26 0 100 58 124 96 43 73 17
110 -47 66z"/>
<path d="M855 2623 c-87 -24 -154 -133 -125 -203 15 -37 37 -50 85 -50 79 0
146 66 153 153 3 41 0 57 -14 75 -20 23 -64 34 -99 25z"/>
<path d="M2165 2358 c-86 -30 -118 -123 -76 -222 21 -47 65 -83 132 -107 45
-15 117 1 148 35 44 47 55 139 22 191 -65 102 -136 134 -226 103z"/>
<path d="M1215 2325 c-41 -21 -92 -81 -100 -116 -11 -50 5 -109 39 -147 28
-30 40 -36 88 -40 85 -7 146 32 174 110 19 56 17 86 -9 132 -39 68 -124 95
-192 61z"/>
<path d="M290 2283 c-50 -79 -51 -144 -2 -151 44 -7 106 120 87 178 -12 38
-52 25 -85 -27z"/>
<path d="M535 2160 c-51 -21 -85 -83 -85 -156 0 -37 6 -51 29 -75 35 -35 57
-36 102 -6 38 25 58 70 58 134 1 57 -16 90 -52 103 -16 5 -30 10 -31 9 -1 0
-10 -4 -21 -9z"/>
<path d="M148 1923 c-15 -38 -21 -145 -9 -163 8 -12 14 -11 34 9 44 40 45 181
2 181 -9 0 -21 -12 -27 -27z"/>
<path d="M1675 1878 c-129 -71 -131 -262 -3 -313 52 -20 121 -19 157 3 152 93
92 323 -84 322 -27 0 -59 -6 -70 -12z"/>
<path d="M844 1836 c-106 -46 -104 -218 3 -274 55 -30 123 4 155 75 34 76 2
169 -69 198 -43 18 -49 18 -89 1z"/>
<path d="M2615 1809 c-53 -26 -90 -128 -75 -210 11 -57 85 -129 133 -129 46 0
97 30 122 72 28 46 28 150 -1 198 -39 67 -119 98 -179 69z"/>
<path d="M296 1718 c-41 -65 -21 -175 36 -199 29 -12 32 -11 54 15 38 43 32
147 -11 189 -24 24 -62 21 -79 -5z"/>
<path d="M80 1556 c0 -59 13 -106 30 -106 11 0 14 100 4 138 -4 12 -13 22 -20
22 -10 0 -14 -15 -14 -54z"/>
<path d="M551 1411 c-40 -40 -35 -127 11 -184 16 -20 35 -30 64 -34 36 -5 43
-2 62 22 31 39 30 117 0 162 -36 51 -103 68 -137 34z"/>
<path d="M1225 1409 c-54 -26 -79 -73 -72 -135 2 -25 13 -58 24 -72 44 -59
152 -92 187 -57 8 8 19 15 24 15 6 0 20 17 32 37 18 30 20 46 15 82 -12 78
-46 119 -115 140 -47 14 -47 14 -95 -10z"/>
<path d="M192 1392 c-10 -27 -7 -97 8 -131 12 -30 53 -52 68 -36 12 11 8 98
-6 131 -17 40 -59 62 -70 36z"/>
<path d="M2125 1365 c-44 -21 -60 -36 -84 -80 -22 -42 -28 -109 -11 -120 6 -4
8 -10 5 -15 -11 -17 37 -69 78 -85 95 -38 200 19 226 121 10 38 9 55 -5 96
-15 45 -22 52 -68 74 -58 27 -97 30 -141 9z"/>
<path d="M2897 1245 c-41 -39 -60 -83 -65 -155 -4 -59 -2 -67 21 -92 32 -34
46 -35 80 -5 38 33 66 96 73 162 5 52 3 64 -16 88 -27 34 -57 34 -93 2z"/>
<path d="M164 1121 c11 -79 66 -144 58 -68 -5 37 -24 78 -48 97 -15 13 -16 11
-10 -29z"/>
<path d="M398 1109 c-21 -12 -24 -68 -7 -102 15 -30 67 -77 84 -77 22 0 45 29
45 58 0 31 -34 100 -59 119 -20 15 -40 16 -63 2z"/>
<path d="M866 1034 c-20 -21 -26 -37 -26 -70 0 -38 6 -50 43 -89 39 -40 48
-45 88 -45 29 1 52 7 68 20 21 18 23 27 19 75 -3 40 -11 62 -29 81 -55 59
-120 70 -163 28z"/>
<path d="M1620 964 c-19 -8 -46 -30 -59 -49 -56 -83 21 -195 134 -195 125 0
185 122 102 208 -48 50 -113 63 -177 36z"/>
<path d="M313 876 c6 -40 63 -119 81 -113 6 2 12 15 14 29 4 30 -54 111 -82
116 -17 4 -18 -1 -13 -32z"/>
<path d="M2456 871 c-58 -30 -96 -90 -96 -151 0 -52 44 -90 103 -90 116 0 213
166 137 235 -30 27 -98 30 -144 6z"/>
<path d="M638 775 c-26 -57 55 -150 124 -143 33 3 33 4 32 52 0 43 -5 53 -37
82 -47 44 -101 48 -119 9z"/>
<path d="M320 745 c13 -22 32 -49 43 -60 18 -18 17 -15 -3 20 -13 22 -32 49
-43 60 -18 18 -17 15 3 -20z"/>
<path d="M1225 678 c-44 -16 -56 -37 -50 -82 16 -113 211 -154 231 -48 16 85
-92 162 -181 130z"/>
<path d="M510 628 c0 -19 38 -78 63 -99 28 -23 67 -25 67 -3 0 42 -66 114
-105 114 -14 0 -25 -6 -25 -12z"/>
<path d="M1961 556 c-42 -15 -81 -62 -81 -98 0 -32 39 -75 76 -84 14 -4 48 -4
76 -2 43 5 57 11 85 42 53 58 42 111 -30 141 -43 18 -79 18 -126 1z"/>
<path d="M476 538 c42 -49 84 -84 84 -70 0 15 -76 92 -91 92 -8 0 -5 -8 7 -22z"/>
<path d="M2637 515 c-15 -8 -34 -21 -43 -30 -8 -8 -20 -15 -25 -15 -5 0 -9 -7
-9 -15 0 -8 -3 -15 -8 -15 -12 0 -34 -60 -28 -76 5 -12 14 -15 39 -10 42 8
147 116 147 151 0 30 -28 33 -73 10z"/>
<path d="M943 492 c-53 -8 -25 -95 41 -126 68 -32 128 -9 111 43 -14 47 -97
92 -152 83z"/>
<path d="M753 391 c-20 -12 6 -51 54 -81 49 -31 73 -35 81 -12 9 29 -108 111
-135 93z"/>
<path d="M658 357 c19 -22 105 -81 96 -65 -12 20 -64 63 -88 72 -15 5 -17 4
-8 -7z"/>
<path d="M1505 325 c-33 -32 -31 -46 6 -83 85 -83 253 -21 186 69 -21 27 -54
39 -112 39 -46 0 -60 -4 -80 -25z"/>
<path d="M2175 256 c-45 -20 -78 -60 -70 -85 5 -17 15 -21 50 -21 82 0 176 61
154 101 -12 23 -87 26 -134 5z"/>
<path d="M1197 223 c-39 -38 61 -106 138 -94 75 11 -5 101 -91 101 -22 0 -44
-3 -47 -7z"/>
<path d="M980 180 c0 -20 123 -80 136 -67 12 11 -11 35 -52 55 -48 23 -84 28
-84 12z"/>
<path d="M1762 109 c-38 -11 -50 -32 -32 -54 19 -23 138 -20 170 5 23 17 24
21 9 35 -19 19 -103 28 -147 14z"/>
<path d="M1415 40 c-3 -6 6 -15 22 -21 38 -14 135 -17 140 -3 8 24 -148 47
-162 24z"/>
</g>
</svg>
